<svg id="SvgjsSvg1001" width="288" height="288" xmlns="http://www.w3.org/2000/svg" version="1.1" xmlns:xlink="http://www.w3.org/1999/xlink" xmlns:svgjs="http://svgjs.com/svgjs"><defs id="SvgjsDefs1002"></defs><g id="SvgjsG1008"><svg xmlns="http://www.w3.org/2000/svg" enable-background="new 0 0 64 64" viewBox="0 0 64 64" width="288" height="288"><circle cx="32" cy="32" r="32" fill="#e43232" class="color334a5c svgShape"></circle><path fill="#ffffff" d="M38.33,52.5c-0.71,0-1.42-0.17-2.08-0.51C25.6,46.47,17.44,38.2,12,27.4c-0.91-1.8-0.56-3.98,0.87-5.43
							l4.45-4.52c0.67-0.68,1.84-0.68,2.51,0l6.06,6.15c0.69,0.7,0.69,1.83,0,2.52l-2.02,2.05c-0.37,0.38-0.46,0.96-0.22,1.44
							c2.31,4.68,5.79,8.21,10.35,10.51c0.47,0.24,1.03,0.15,1.4-0.23l2.02-2.05c0.33-0.34,0.78-0.53,1.26-0.53c0,0,0,0,0,0
							c0.48,0,0.92,0.19,1.26,0.53L46.01,44c0.69,0.7,0.69,1.83,0,2.52l-2.7,2.74c-0.02,0.11-0.08,0.21-0.16,0.3l-1.52,1.54
							C40.72,52.02,39.53,52.5,38.33,52.5z M18.58,18.17c-0.14,0-0.27,0.06-0.37,0.16l-4.45,4.52c-1.05,1.07-1.31,2.68-0.65,4
							c5.32,10.56,13.3,18.65,23.71,24.05c1.3,0.67,2.87,0.41,3.92-0.66l1.29-1.31c0.02-0.11,0.08-0.21,0.16-0.3l2.93-2.97
							c0.21-0.21,0.21-0.56,0-0.78l-6.07-6.15c-0.2-0.2-0.54-0.2-0.74,0l-2.02,2.05c-0.75,0.76-1.89,0.94-2.84,0.46
							c-4.81-2.42-8.48-6.14-10.91-11.07c-0.47-0.96-0.29-2.11,0.45-2.86l2.02-2.05c0.21-0.21,0.21-0.56,0-0.78l-6.06-6.15
							C18.85,18.22,18.72,18.17,18.58,18.17z" class="colorfff svgShape"></path><path fill="#ffffff" d="M34.24,33.19c-0.1,0-0.21-0.02-0.31-0.06c-0.31-0.12-0.51-0.42-0.51-0.75v-2.99h-2.85
						c-1.16,0-2.11-0.96-2.11-2.13V13.63c0-1.18,0.95-2.13,2.11-2.13h19.82c1.16,0,2.11,0.96,2.11,2.13v13.62
						c0,1.17-0.95,2.13-2.11,2.13H38.28l-3.46,3.55C34.66,33.1,34.45,33.19,34.24,33.19z M30.57,12.74c-0.48,0-0.87,0.4-0.87,0.89
						v13.62c0,0.49,0.39,0.89,0.87,0.89h3.47c0.34,0,0.62,0.28,0.62,0.62v2.55l2.9-2.98c0.12-0.12,0.28-0.19,0.44-0.19h12.37
						c0.48,0,0.87-0.4,0.87-0.89V13.63c0-0.49-0.39-0.89-0.87-0.89H30.57z" class="colorfff svgShape"></path><path fill="#ffffff" d="M48.53 17.32H33.14c-.34 0-.62-.28-.62-.62s.28-.62.62-.62h15.39c.34 0 .62.28.62.62S48.88 17.32 48.53 17.32zM48.53 20.68H33.14c-.34 0-.62-.28-.62-.62 0-.34.28-.62.62-.62h15.39c.34 0 .62.28.62.62C49.15 20.41 48.88 20.68 48.53 20.68zM48.53 24.04H33.14c-.34 0-.62-.28-.62-.62s.28-.62.62-.62h15.39c.34 0 .62.28.62.62S48.88 24.04 48.53 24.04z" class="colorfff svgShape"></path></svg></g></svg>