<?xml version="1.0" standalone="no"?> <!DOCTYPE svg PUBLIC "-//W3C//DTD SVG 1.0//EN" "http://www.w3.org/TR/2001/REC-SVG-20010904/DTD/svg10.dtd" > <svg xmlns="http://www.w3.org/2000/svg" width="100%" height="100%">
<defs >
<font horiz-adv-x="378" ><font-face
    font-family="Hobo"
    units-per-em="1000"
    panose-1="0 0 0 0 0 0 0 0 0 0"
    ascent="960"
    descent="-300"
    alphabetic="0" />
<missing-glyph horiz-adv-x="500" d="M63 0V830H438V0H63ZM125 63H375V768H125V63Z" />
<glyph unicode=" " glyph-name="space" horiz-adv-x="252" />
<glyph unicode="!" glyph-name="exclam" horiz-adv-x="242" d="M210 684Q210 666 202 648Q148 525 148 408Q148 352 154 268Q156 240 156 244Q156 222 112 222Q84 222 82 234Q51 304 35 445Q22 551 22 640Q22 700 54 700H196Q210 700 210 684ZM216 82Q216 36 187
9T120 -18H116Q78 -18 50 7T22 74Q22 121 51 149Q77 174 114 174Q152 174 182 150Q216 123 216 82Z" />
<glyph unicode="&quot;" glyph-name="quotedbl" horiz-adv-x="580" d="M528 618Q530 576 497 536Q453 484 368 480Q362 480 362 482Q370 492 378 516Q384 537 384 548Q384 571 363 595T318 620Q318 625 328 630L414 706Q426 712 442 712Q473 712 499 684T528 618ZM262
620Q262 577 229 538Q185 485 102 480Q94 480 94 484Q116 522 116 548Q116 567 92 594T52 622H50Q58 632 62 632L148 706Q157 714 176 714Q206 714 232 687T262 620Z" />
<glyph unicode="#" glyph-name="numbersign" horiz-adv-x="844" d="M794 446Q796 418 754 418L607 417L552 270L674 276Q696 277 718 262T740 234V204Q740 181 727 178T700 174H517L458 16Q455 2 439 -11T410 -24Q392 -24 392 0Q392 12 398 30L445 174H249L194
24Q189 9 173 -3T144 -16Q126 -16 126 8Q126 8 132 38L176 174H108Q95 174 81 191T66 222Q66 235 76 242Q82 245 100 246L201 251L255 416H166Q152 416 136 432T120 464Q120 478 132 484Q133 485 158 490Q220 494 281 496L340 676Q360 722 402 722H418Q438 716
438 698Q438 683 430 662L370 501Q420 504 555 511L606 668Q621 714 666 714H682Q704 708 704 690Q704 681 694 654L643 516L728 520Q751 521 771 506T792 472L794 446ZM524 417Q431 417 339 416L279 255Q377 261 475 265L524 417Z" />
<glyph unicode="$" glyph-name="dollar" horiz-adv-x="536" d="M490 194Q490 101 427 46Q378 2 331 2T284 -25T264 -52H232Q217 -49 215 -30T204 -6Q160 -6 103 16Q39 41 36 68Q36 70 37 75T38 82Q48 118 72 180Q77 196 88 196Q99 196 104 186Q141 154 170 148Q174
147 183 144T196 140Q216 140 216 186V282Q216 312 170 328Q101 352 61 406Q26 456 26 514Q26 575 67 629T170 694Q200 699 206 702Q216 706 216 720Q216 746 238 746H264Q278 746 278 732V720Q278 700 318 700Q355 692 391 684Q434 673 434 662Q434 655 430 640Q423
613 404 566Q398 556 384 556Q373 556 356 566Q330 586 304 586Q278 586 278 554V454Q278 429 301 417Q323 409 344 400Q388 377 421 344Q490 277 490 194ZM216 474V566Q216 590 200 590Q183 590 165 567Q144 542 144 514Q144 496 164 469T200 442Q216 442 216
474ZM370 206Q370 231 347 257T298 284Q278 284 278 262V174Q278 140 304 140Q335 140 354 163Q370 183 370 206Z" />
<glyph unicode="%" glyph-name="percent" horiz-adv-x="700" d="M310 534Q307 458 272 412T178 366Q106 366 72 422Q46 466 46 534Q46 606 78 652Q114 706 184 706Q248 706 283 645Q312 594 310 534ZM546 692Q546 685 544 680L252 22Q246 8 228 -3T194 -14Q168
-14 168 8Q168 10 178 36L422 660Q445 720 506 720Q522 720 534 712T546 692ZM644 148Q647 82 607 32T504 -18Q447 -18 409 37Q376 87 376 148Q376 205 401 251Q439 320 518 320Q578 320 611 269Q641 224 644 148ZM224 560Q224 640 178 640Q155 640 141 608Q130
581 130 546Q130 468 178 468Q224 468 224 560ZM556 174Q556 262 510 262Q488 262 475 228Q464 199 464 160Q464 88 510 88Q556 88 556 174Z" />
<glyph unicode="&amp;" glyph-name="ampersand" horiz-adv-x="832" d="M782 328Q777 270 750 270Q740 270 708 288Q697 294 684 294Q646 294 592 250T538 178Q538 161 566 149Q588 140 608 140Q648 140 682 168Q694 178 704 178Q708 178 708 156Q708 84 670 36T570
-12Q522 -12 485 18T430 48Q405 48 382 28Q313 -12 236 -12Q50 -12 50 160Q50 274 188 380Q192 384 192 394Q192 411 166 460T140 540Q140 607 189 656Q247 714 348 714Q426 714 477 672T528 568Q528 521 496 474Q489 463 435 414Q394 376 394 354Q394 338 405
323T429 294T454 280Q468 280 476 294Q513 337 571 370Q633 406 682 406Q729 406 757 381Q782 359 782 328ZM396 564Q396 612 342 612Q282 612 282 560Q282 533 295 507Q309 478 328 478Q356 478 377 509Q396 537 396 564ZM348 160Q348 177 336 194Q277 278 258
278Q240 278 217 243T194 174Q194 159 212 141Q234 118 270 114Q292 114 317 124Q348 138 348 160Z" />
<glyph unicode="&apos;" glyph-name="quotesingle" horiz-adv-x="252" d="M236 620Q236 577 203 538Q159 485 76 480Q68 480 68 484Q90 522 90 548Q90 567 66 594T26 622H24Q32 632 36 632L122 706Q131 714 150 714Q180 714 206 687T236 620Z" />
<glyph unicode="(" glyph-name="parenleft" horiz-adv-x="330" d="M310 604Q310 592 278 592Q142 592 142 356Q142 304 157 196Q173 71 192 36Q196 29 196 22Q196 12 173 0T138 -12Q114 -12 104 22Q87 60 68 177Q46 303 46 386Q46 524 87 612Q134 714 226 714Q252
714 283 664Q310 621 310 604Z" />
<glyph unicode=")" glyph-name="parenright" horiz-adv-x="350" d="M276 316Q276 178 236 91Q188 -12 96 -12Q70 -12 39 38Q12 81 12 98Q12 110 44 110Q180 110 180 346Q180 398 165 506Q149 631 130 666Q126 673 126 680Q126 690 149 702T184 714Q208 714 218
680Q235 642 255 525Q276 399 276 316Z" />
<glyph unicode="*" glyph-name="asterisk" horiz-adv-x="428" d="M384 564Q384 555 373 552Q359 549 346 546L280 534L326 488Q344 470 344 460Q344 454 332 448L286 414Q278 406 268 406Q252 406 240 434L220 480Q196 445 180 414Q177 404 168 404Q166 404 146
414Q106 442 92 454Q86 466 86 464Q86 469 106 488L154 534Q121 538 87 543Q46 550 46 566Q53 589 66 626Q77 646 92 646Q100 646 112 640Q144 624 174 612L168 694Q166 726 194 726H240Q272 726 272 702L260 612Q270 619 318 640Q348 646 342 646Q355 646 358
632L380 580Q384 571 384 564Z" />
<glyph unicode="+" glyph-name="plus" horiz-adv-x="516" d="M448 308Q448 256 428 256Q422 256 407 261T384 266Q328 264 306 220Q290 188 290 120Q290 88 259 64T198 40Q197 40 194 41T190 42Q174 45 174 56V134Q174 262 158 262Q158 262 134 256T80 250Q78
250 74 251T68 252Q56 252 56 274Q56 311 64 327Q74 350 104 350Q111 350 122 349T136 348Q179 348 191 362T204 426Q205 468 239 486Q272 499 304 512Q321 520 326 520Q339 520 338 502Q336 460 324 409T312 354Q312 344 358 344Q362 344 386 348T416 352Q448
352 448 308Z" />
<glyph unicode="," glyph-name="comma" horiz-adv-x="264" d="M222 88Q222 45 189 6Q145 -47 62 -52Q54 -52 54 -48Q76 -10 76 16Q76 35 52 62T12 90H10Q18 100 22 100L108 174Q117 182 136 182Q166 182 192 155T222 88Z" />
<glyph unicode="-" glyph-name="hyphen" horiz-adv-x="308" d="M256 308Q254 277 239 246Q219 206 186 206H82Q42 206 42 234Q50 280 58 295Q71 320 102 320H226Q257 320 256 308Z" />
<glyph unicode="." glyph-name="period" horiz-adv-x="264" d="M216 82Q216 37 188 12T120 -14H116Q79 -14 51 11T22 82Q21 123 50 150Q77 174 114 174Q156 174 186 149T216 82Z" />
<glyph unicode="/" glyph-name="slash" horiz-adv-x="526" d="M440 696Q440 690 430 660L150 22Q146 7 127 -5T92 -18Q70 -18 70 6Q70 15 78 36L324 674Q347 720 396 720H416Q440 714 440 696Z" />
<glyph unicode="0" glyph-name="zero" horiz-adv-x="516" d="M478 340Q478 216 443 127Q388 -12 258 -12Q163 -12 99 81Q30 181 30 344Q30 490 89 593Q153 706 258 706Q369 706 430 577Q478 474 478 340ZM350 360Q350 586 258 586Q164 586 164 354Q164 140 258
140Q310 140 334 228Q350 286 350 360Z" />
<glyph unicode="1" glyph-name="one" horiz-adv-x="296" d="M244 28Q244 2 224 -6Q204 -10 170 -10H134Q104 -10 97 12Q89 38 88 148Q88 157 98 524Q99 577 58 592Q28 607 28 628Q28 653 80 679T178 706Q240 706 240 666Q240 628 229 534T218 406Q218 339 231
203T244 28Z" />
<glyph unicode="2" glyph-name="two" horiz-adv-x="494" d="M460 132Q460 81 427 38Q390 -12 334 -12Q291 -12 248 -2T180 8Q164 8 126 -3T74 -14Q36 -14 36 22Q36 153 96 239Q124 277 222 360Q282 410 295 425Q328 462 328 500Q328 586 254 586Q187 586 128 468Q122
456 116 456Q107 456 94 474L62 534Q50 556 50 568Q50 571 52 577T54 586Q80 637 137 671T254 706Q322 706 379 669Q454 620 454 526Q454 436 393 361Q345 303 242 234Q192 201 180 160Q180 140 196 140Q202 140 221 144T248 148Q274 148 309 141T354 134Q408 134
408 198Q402 213 402 226Q402 233 404 240Q460 215 460 132Z" />
<glyph unicode="3" glyph-name="three" horiz-adv-x="482" d="M450 242Q450 132 380 57Q314 -12 230 -12Q147 -12 86 29Q34 63 34 92Q34 93 35 97T36 102Q59 136 82 170T116 204Q123 204 140 191Q159 175 162 174Q198 144 232 144Q269 144 297 177Q322 207 322
242Q322 280 287 309Q248 342 182 346Q122 350 122 370Q122 382 142 406Q206 484 276 554Q288 566 288 572Q288 580 250 580Q194 580 136 560Q96 546 96 546Q84 546 84 560Q64 610 64 674Q64 689 73 693Q76 694 96 694H394Q420 694 428 683T436 640Q433 580 379
509Q359 483 306 430Q306 424 328 414Q381 391 415 344T450 242Z" />
<glyph unicode="4" glyph-name="four" horiz-adv-x="516" d="M480 234Q480 194 452 194Q439 200 394 202Q360 202 360 160Q360 134 363 82T366 22Q366 3 348 -3Q342 -5 300 -12Q288 -14 268 -14Q226 -14 226 18Q228 38 239 96Q248 142 248 168Q248 198 216 198H202Q186
198 137 184T66 170Q22 170 22 234Q22 406 186 626Q210 649 233 673Q259 694 288 694H354Q390 694 390 676Q390 663 374 648Q317 594 248 501Q165 389 150 326L148 322Q148 308 180 308Q217 308 242 327Q263 343 268 366Q273 409 297 460Q324 520 360 546Q382 562
394 562Q404 562 404 550Q404 540 400 534Q378 468 378 402Q378 376 386 348Q388 334 434 332T480 308V234Z" />
<glyph unicode="5" glyph-name="five" horiz-adv-x="472" d="M434 234Q434 135 384 68Q323 -12 206 -12Q100 -12 38 42Q24 54 24 74Q24 124 72 186Q77 202 88 202Q96 202 112 186Q158 140 206 140Q254 140 282 170Q306 197 306 236Q306 276 279 308T210 340Q150
340 124 314Q110 300 90 300Q34 300 38 394Q45 564 78 660Q87 686 124 686H364Q387 686 395 683T404 668Q404 625 390 580Q384 562 364 562Q322 576 248 576Q192 576 172 551T152 460Q152 432 164 432Q222 448 244 448Q332 448 386 379Q434 317 434 234Z" />
<glyph unicode="6" glyph-name="six" horiz-adv-x="526" d="M478 234Q478 143 427 71Q365 -18 258 -18Q143 -18 86 87Q38 174 38 320Q38 488 117 594T330 700Q365 700 396 693Q442 683 442 662Q442 644 428 606Q411 558 390 558Q385 558 360 572T318 586Q273 586
223 539Q170 489 170 434Q170 418 182 418Q191 418 204 428Q256 454 304 454Q386 454 435 382Q478 318 478 234ZM356 242Q356 289 327 316Q300 340 258 340Q219 340 193 316Q164 289 164 242Q164 189 196 156Q224 126 262 126Q300 126 328 157T356 242Z" />
<glyph unicode="7" glyph-name="seven" horiz-adv-x="472" d="M424 600Q422 583 396 542Q327 435 304 391Q244 275 244 196Q244 152 264 123T324 94Q331 94 340 95T350 96Q356 96 356 86V74Q342 37 308 14Q271 -12 224 -12Q173 -12 133 29Q90 72 90 134Q90 315
284 534Q300 558 300 564Q300 580 264 580H170Q106 580 78 534Q67 516 54 516Q46 516 46 534L32 660Q32 684 37 689T58 694H376Q424 694 424 670V600Z" />
<glyph unicode="8" glyph-name="eight" horiz-adv-x="536" d="M490 186Q490 105 442 53Q383 -12 264 -12Q162 -12 103 27Q35 72 32 160Q31 194 48 234Q70 288 118 328Q134 344 134 356Q134 373 118 386Q64 444 64 518Q64 585 110 637Q165 698 264 700Q345 701
398 660Q458 615 458 534Q458 494 437 461Q426 445 397 415Q376 394 376 382Q376 378 384 366Q419 333 454 299Q490 255 490 186ZM338 520Q338 554 316 577T264 600Q236 600 212 580Q184 557 184 520Q188 478 214 452Q237 428 264 428Q293 428 315 458T338 520ZM350
194Q350 234 325 264T264 294Q218 294 196 259Q178 232 178 194Q178 134 264 134Q350 134 350 194Z" />
<glyph unicode="9" glyph-name="nine" horiz-adv-x="526" d="M478 410Q478 264 431 157Q356 -12 184 -12Q74 -12 74 30Q74 40 78 48Q86 83 112 148Q115 162 122 162Q126 162 138 154Q163 132 194 132Q242 132 287 174T344 274V284Q344 300 330 300Q322 300 310
294Q259 262 210 262Q132 262 85 317T38 454Q38 546 86 615Q146 700 258 700Q360 700 423 605Q478 521 478 410ZM350 484V486Q350 526 321 553T258 580Q207 580 179 552T150 474Q150 426 183 399Q212 374 252 374Q294 374 322 408T350 484Z" />
<glyph unicode=":" glyph-name="colon" horiz-adv-x="274" d="M234 460Q234 417 204 392T134 366Q95 365 65 390T34 460Q33 503 62 528T132 554Q171 554 200 532Q234 506 234 460ZM226 82Q226 37 199 12T134 -14Q96 -14 67 11Q35 38 34 82Q33 123 62 150Q89 174
126 174Q169 174 196 153Q226 128 226 82Z" />
<glyph unicode=";" glyph-name="semicolon" horiz-adv-x="286" d="M248 460Q248 415 217 388Q190 364 152 364L150 366Q111 366 84 390Q54 416 54 460Q54 503 84 530Q111 554 148 554Q189 554 218 530Q248 503 248 460ZM254 88Q254 45 221 6Q177 -47 94 -52Q86
-52 86 -48Q108 -10 108 16Q108 35 84 62T44 90H42Q50 100 54 100L140 174Q149 182 168 182Q198 182 224 155T254 88Z" />
<glyph unicode="&lt;" glyph-name="less" horiz-adv-x="548" d="M496 134Q496 106 493 101T472 96Q342 96 239 142Q157 177 105 234Q62 281 62 308Q62 334 113 378Q171 428 255 460Q359 500 474 500Q491 500 493 496T496 466Q496 366 484 366Q484 366 458 370T420
374Q349 374 276 347T202 294Q202 256 285 231Q358 208 442 208Q471 208 480 205Q496 199 496 180V134Z" />
<glyph unicode="=" glyph-name="equal" horiz-adv-x="362" d="M326 420Q324 394 305 369Q279 336 238 336H106Q56 336 56 358Q66 396 76 409Q93 430 132 430H288Q327 430 326 420ZM322 254Q320 228 301 203Q275 170 234 170H102Q52 170 52 192Q62 230 72 243Q89
264 128 264H284Q323 264 322 254Z" />
<glyph unicode="&gt;" glyph-name="greater" horiz-adv-x="536" d="M506 310Q506 283 463 236Q411 179 329 144Q226 98 96 98Q78 98 75 103T72 136V182Q72 201 88 207Q98 210 126 210Q210 210 284 233Q366 258 366 296Q366 321 293 348T148 376Q136 376 110 372T84
368Q72 368 72 468Q72 494 75 498T94 502Q209 502 313 462Q397 430 455 380Q506 336 506 310Z" />
<glyph unicode="?" glyph-name="question" horiz-adv-x="406" d="M348 514Q348 449 311 399Q291 373 248 340Q214 314 204 303Q180 276 180 242Q180 232 138 232Q94 232 94 242V328Q100 376 135 411Q166 437 196 463Q228 493 228 532Q228 555 207 577T160 600Q140
600 120 580Q113 572 107 563Q98 552 92 552Q87 552 82 560Q65 576 36 606Q26 617 26 628Q26 643 42 660Q99 720 168 720Q261 720 311 642Q348 583 348 514ZM234 82Q234 35 206 9T138 -18Q100 -18 71 9T42 82Q42 124 71 150Q97 174 134 174Q175 174 204 149T234
82Z" />
<glyph unicode="@" glyph-name="at" horiz-adv-x="570" d="M562 592Q562 382 516 303Q482 244 404 242Q403 242 398 241T392 240Q260 240 260 314Q260 433 368 446Q460 457 460 476Q460 592 348 592Q271 592 221 520Q174 452 174 354Q174 263 227 199T360 134Q401
134 451 167T508 234Q516 260 520 260Q531 260 534 234Q538 200 538 182Q538 95 476 39Q411 -18 304 -18Q176 -18 96 98Q28 197 28 320Q28 455 88 563Q173 714 348 714Q426 714 484 683Q546 650 562 592ZM428 384Q429 392 382 392Q362 389 342 372T322 334Q322
317 335 307T366 296L372 298Q395 302 402 304Q423 311 424 322L428 384Z" />
<glyph unicode="A" glyph-name="A" horiz-adv-x="592" d="M564 186Q564 127 556 78Q542 0 512 0H380Q370 0 370 8Q370 13 398 68Q440 150 440 204Q440 232 411 248Q386 262 348 262Q282 262 234 239Q170 210 170 152Q170 119 201 55Q224 9 224 8Q224 0 194 0H88Q26
0 26 186Q26 315 84 447Q134 558 208 638Q276 712 318 712Q365 712 419 654Q481 588 519 479Q564 349 564 186ZM418 404Q418 450 384 507T324 564Q294 564 243 494T190 372Q190 356 204 356Q205 356 211 358T220 360Q227 360 279 370T358 380Q363 380 374 379T390
378Q418 378 418 404Z" />
<glyph unicode="B" glyph-name="B" horiz-adv-x="548" d="M518 168Q518 3 338 2L72 0Q43 0 33 44Q26 79 26 180V414Q26 532 52 660Q58 687 66 696T98 706H298Q395 706 439 678T484 580Q484 514 404 434Q386 420 386 408Q386 394 412 374Q469 315 492 273Q518 225
518 168ZM344 554Q344 577 323 589T272 602Q150 602 150 428Q150 396 174 396Q196 396 218 414Q266 439 301 474Q344 517 344 554ZM376 200Q376 235 343 287T282 340Q240 340 178 294Q156 250 156 226Q156 112 242 112Q376 112 376 200Z" />
<glyph unicode="C" glyph-name="C" horiz-adv-x="558" d="M540 592Q540 563 523 541T480 514Q462 508 458 508Q434 508 434 526Q421 592 348 592Q271 592 221 520Q174 452 174 354Q174 263 227 199T360 134Q405 134 447 159Q494 188 508 234Q512 260 520 260Q531
260 534 234Q538 200 538 182Q538 93 481 39Q420 -18 314 -18Q185 -18 101 98Q28 199 28 320Q28 455 88 563Q173 714 348 714Q427 714 482 682Q540 647 540 592Z" />
<glyph unicode="D" glyph-name="D" horiz-adv-x="558" d="M530 282Q532 140 475 75Q412 2 264 2H78Q26 2 26 82Q26 96 22 184T18 340Q18 415 27 520Q36 631 46 660Q57 706 84 706H224Q327 706 415 613Q527 495 530 282ZM390 308Q390 400 344 490Q294 590 228 590Q152
590 152 300Q152 213 180 163T258 112Q324 112 361 182Q390 237 390 308Z" />
<glyph unicode="E" glyph-name="E" horiz-adv-x="504" d="M480 18Q480 7 469 4Q462 2 436 2H64Q63 2 60 1T56 0Q20 0 20 76Q20 109 41 332Q66 586 84 668Q91 700 142 700H430Q474 700 474 680Q474 676 470 660L422 566Q419 554 406 554Q400 554 368 574Q346 592
288 592Q234 592 200 561T166 478Q166 438 194 438Q202 438 265 458T354 478Q386 478 386 456Q386 450 382 434L342 334Q339 318 328 318Q324 318 298 327T260 336Q212 336 181 299T150 216Q150 178 176 148T250 114Q317 114 368 148Q398 168 408 168Q417 168 430
148Q444 120 457 93Q480 43 480 18Z" />
<glyph unicode="F" glyph-name="F" horiz-adv-x="472" d="M470 668Q470 654 466 648Q432 580 420 560Q410 544 398 544Q393 544 373 560T332 580T286 584Q224 584 191 548T158 452Q158 408 190 408Q204 408 262 428T346 448Q384 448 384 428V426Q384 385 358 320Q353
298 330 298Q324 298 304 303T272 308Q166 308 166 200Q166 184 181 106T196 16Q196 2 178 2H60L56 0Q32 0 25 64Q20 117 20 314Q20 556 54 668Q64 700 106 700H414Q470 700 470 668Z" />
<glyph unicode="G" glyph-name="G" horiz-adv-x="558" d="M534 148Q534 78 482 33Q423 -18 314 -18Q168 -18 92 76Q25 160 22 300Q19 420 76 532Q161 700 340 700Q422 700 476 663Q526 627 526 580Q526 548 507 525Q485 500 448 500Q428 500 420 519Q418 523 414
546Q410 561 388 570T340 580Q246 580 199 491Q165 424 160 320Q157 255 181 203Q214 132 284 132Q325 132 365 156T406 214Q406 238 372 270T338 310Q338 318 348 320Q437 368 486 368Q499 368 508 348Q534 261 534 148Z" />
<glyph unicode="H" glyph-name="H" horiz-adv-x="592" d="M552 254Q552 239 549 162T546 48Q546 2 512 2H420Q366 2 366 20Q366 26 372 42Q426 184 426 262Q426 340 346 340Q280 340 228 305T172 216Q171 192 180 129T198 47T208 14Q208 2 178 2H76Q26 2 26 222Q26
491 66 654Q77 700 106 700H214Q234 700 234 686Q234 673 226 660Q214 631 198 574Q178 505 178 474Q178 426 196 426Q190 426 214 434Q252 454 384 454Q408 454 408 480Q408 502 388 560Q370 611 352 648Q338 677 338 686Q338 700 352 700H466Q492 700 506 660Q537
568 547 450Q552 384 552 254Z" />
<glyph unicode="I" glyph-name="I" horiz-adv-x="230" d="M212 14Q212 0 192 0L82 2Q56 2 47 20Q44 26 36 68Q22 142 22 334Q22 578 54 674Q65 706 102 706H174Q212 706 212 686Q212 667 189 534T166 354Q166 209 208 36Q212 20 212 14Z" />
<glyph unicode="J" glyph-name="J" horiz-adv-x="340" d="M314 320Q314 169 287 94Q247 -18 140 -18Q99 -18 54 8T8 54Q8 72 24 116Q38 157 48 174Q57 186 64 186Q74 186 88 160Q110 120 130 120Q149 120 163 190Q174 250 174 308Q174 428 151 558Q138 623 124
688H122Q122 694 134 700T160 706H248Q274 706 284 699T294 668Q314 542 314 320Z" />
<glyph unicode="K" glyph-name="K" horiz-adv-x="526" d="M500 26Q500 2 480 2H366Q334 2 334 42Q334 126 307 218Q278 318 244 318Q224 318 191 279Q154 237 154 200Q154 189 167 114Q181 28 182 18V14Q182 2 148 2H60Q14 2 14 206Q14 224 15 252T16 288Q16 560
42 668Q47 690 55 698T88 706H168Q194 706 194 690Q194 675 171 583T148 434Q148 400 160 400Q197 400 270 523Q333 630 348 686Q353 706 380 706H460Q475 706 479 697Q480 694 480 674Q480 629 442 566Q433 551 380 492Q338 447 338 426Q338 418 348 408Q362 393
366 386Q421 307 438 274Q500 152 500 26Z" />
<glyph unicode="L" glyph-name="L" horiz-adv-x="450" d="M440 14Q440 0 422 0L66 2Q20 2 20 54Q20 197 41 410Q61 618 80 680L82 688Q88 706 112 706H220Q246 706 246 686Q246 654 199 481T152 274Q152 108 246 108Q306 108 366 168Q378 180 384 180Q398 180
405 161T440 28V14Z" />
<glyph unicode="M" glyph-name="M" horiz-adv-x="722" d="M682 280Q682 0 642 0L640 2H532Q494 2 494 18Q494 48 518 185Q543 331 546 380Q548 410 541 461Q532 522 518 522Q498 522 449 382Q404 253 398 207T352 160Q334 160 318 174T300 206Q280 304 244 405Q202
522 176 522Q148 522 148 396Q148 389 149 380T150 370Q150 153 198 36Q202 26 202 18Q202 3 172 2L74 0Q26 -1 26 262Q26 706 106 706H172Q228 706 276 638Q302 600 338 514Q352 480 356 480Q362 480 372 508Q390 558 440 624Q499 702 538 706H612Q682 706 682
408V280Z" />
<glyph unicode="N" glyph-name="N" horiz-adv-x="580" d="M544 304Q544 126 526 42Q521 18 517 12Q510 2 488 2H414Q388 2 380 5Q366 10 366 28Q366 112 274 299Q184 482 150 482Q136 482 136 412Q136 329 148 207Q159 80 174 22Q174 6 164 3Q161 2 140 2H68Q67
2 65 1T62 0Q36 0 36 62Q24 162 24 328Q24 330 23 336T22 346Q22 706 94 706H134Q187 706 270 585Q330 496 394 364Q408 334 418 334Q426 334 426 372V376Q426 414 408 530Q391 632 380 680Q380 706 408 706H480Q502 706 511 687Q512 683 520 648Q544 538 544 304Z"
/>
<glyph unicode="O" glyph-name="O" horiz-adv-x="624" d="M600 262Q600 152 560 90Q494 -12 320 -12Q167 -12 102 47Q34 109 28 262Q39 454 116 583Q198 720 318 720Q444 720 527 559Q600 419 600 262ZM460 268Q460 407 410 499Q365 580 314 580Q266 580 220 491Q172
399 172 298Q172 140 314 140Q460 140 460 268Z" />
<glyph unicode="P" glyph-name="P" horiz-adv-x="526" d="M526 546Q526 404 334 314Q186 244 186 186Q186 163 197 107T216 36Q216 33 217 26T218 18Q218 2 194 2L76 0Q50 0 41 47Q37 70 36 128Q36 141 32 223Q28 295 28 344Q28 503 48 632Q54 671 67 688T108
706H360Q442 706 488 651Q526 605 526 546ZM382 526Q382 565 340 585Q308 600 268 600Q207 600 185 526Q177 498 168 400Q168 360 192 360Q231 360 304 418Q382 480 382 526Z" />
<glyph unicode="Q" glyph-name="Q" horiz-adv-x="602" d="M572 8Q572 -38 556 -38H554L446 48Q380 -18 288 -18Q185 -18 109 73Q26 173 26 328Q26 525 111 628Q183 714 292 714Q413 714 487 605Q556 504 556 360Q556 237 506 134Q535 115 553 79T572 8ZM416 358Q416
588 290 588Q166 588 166 356Q166 262 193 201Q225 126 290 126Q304 126 332 134Q244 201 244 290Q244 293 245 299T246 308Q251 338 264 338Q280 338 280 320Q280 281 398 222Q416 273 416 358Z" />
<glyph unicode="R" glyph-name="R" horiz-adv-x="548" d="M530 20Q530 0 508 0Q506 0 499 1T488 2H422Q387 2 382 4Q368 10 368 36Q368 105 333 189Q295 278 256 278Q228 278 198 245T168 186Q168 159 184 108Q202 50 206 18V14Q206 2 162 2H96Q65 2 57 6T44 36Q26
119 26 284Q26 578 56 668Q69 706 102 706H302Q397 706 456 657Q512 610 512 540Q512 429 376 348Q527 188 530 20ZM366 526Q366 560 335 579T262 598Q162 598 162 414Q162 376 186 376Q225 376 293 427Q366 482 366 526Z" />
<glyph unicode="S" glyph-name="S" horiz-adv-x="536" d="M516 208Q516 110 446 49T270 -12Q148 -12 79 52Q18 107 18 186Q18 226 30 261Q44 304 70 304Q77 304 84 272Q92 228 102 206Q116 174 163 152T258 130Q304 130 339 149Q378 171 378 206Q378 239 322 275Q276
305 210 328Q125 357 81 409Q40 457 40 516Q40 601 102 660T262 718Q329 717 394 693Q474 662 474 614Q474 602 456 574Q424 524 406 524Q398 524 382 540Q334 602 266 602Q226 602 196 579T166 526Q166 500 195 481T329 416Q419 377 458 341Q516 288 516 208Z"
/>
<glyph unicode="T" glyph-name="T" horiz-adv-x="536" d="M534 620Q534 595 513 557T480 518Q468 518 456 534Q417 584 370 584Q351 584 348 574Q312 516 312 366Q312 297 335 167T358 12Q348 2 328 2H236Q206 2 197 12T182 62Q170 152 170 186Q170 279 189 421T208
574Q208 584 194 584Q173 584 114 549Q75 525 36 500Q17 488 12 488Q2 488 2 506Q2 549 18 609T50 674Q78 688 144 699Q215 710 288 710Q369 710 441 691Q534 665 534 620Z" />
<glyph unicode="U" glyph-name="U" horiz-adv-x="570" d="M542 394Q542 -12 282 -12Q16 -12 16 360Q16 408 23 511Q30 611 36 648T45 694Q50 706 64 706H176Q200 706 200 688Q200 680 196 660Q158 531 158 366Q158 281 187 214Q222 134 282 134Q412 134 412 388Q412
528 382 648Q380 656 372 674Q366 689 366 694Q366 706 388 706H470Q516 706 522 668Q542 545 542 394Z" />
<glyph unicode="V" glyph-name="V" horiz-adv-x="558" d="M546 490Q546 381 496 255Q452 144 389 63T284 -18Q237 -18 177 46Q112 116 70 226Q22 354 22 504Q22 706 82 706H174Q206 706 206 690Q206 687 200 668Q176 593 175 589Q160 526 160 442Q160 365 203
270Q247 170 290 170Q332 170 374 263Q414 353 414 430Q414 575 374 660Q360 690 360 692Q360 706 380 706H480Q519 706 536 617Q546 562 546 490Z" />
<glyph unicode="W" glyph-name="W" horiz-adv-x="756" d="M720 554Q720 440 675 295Q638 174 584 75Q533 -18 510 -18Q472 -18 376 184Q365 206 356 206Q351 206 330 174Q235 -20 206 -20Q179 -20 135 64Q89 153 58 276Q22 418 22 552Q22 706 64 706H158Q184 706
184 692Q184 684 173 610T162 490Q162 407 177 322Q196 214 226 214Q263 214 294 346Q322 463 322 556Q322 584 315 633T308 692Q308 706 338 706H422Q458 706 458 686Q458 677 448 621T438 538Q438 447 457 342Q479 216 510 216Q546 216 576 332Q602 434 602 518Q602
544 589 604T576 680Q576 706 602 706H666Q720 706 720 554Z" />
<glyph unicode="X" glyph-name="X" horiz-adv-x="548" d="M528 28Q528 2 496 2H394Q373 2 366 18Q362 28 362 54Q362 121 341 189Q315 272 276 272Q232 272 195 182Q162 100 162 28Q162 2 136 2H56Q24 2 24 36Q24 175 156 320Q194 362 194 376Q194 396 176 414Q64
529 64 680Q64 698 75 703Q83 706 116 706H196Q224 706 224 668Q224 607 246 539Q271 460 302 460Q336 460 354 550Q366 615 366 690Q366 706 394 706H470Q508 706 508 668Q508 506 422 420Q396 394 396 372Q396 355 411 336Q423 322 436 308Q479 244 497 198Q528
121 528 28Z" />
<glyph unicode="Y" glyph-name="Y" horiz-adv-x="536" d="M528 660Q528 573 469 466Q415 374 361 283Q302 176 302 90Q302 72 310 36Q310 12 304 7T276 2H188Q161 2 153 8Q142 16 142 48Q142 127 202 262Q109 362 64 445Q8 547 8 650Q8 706 56 706H142Q170 706
170 678Q170 673 168 649T166 620Q166 545 212 461Q253 386 276 386Q305 386 349 475T394 630Q394 640 392 658T390 680Q390 706 414 706H488Q528 706 528 660Z" />
<glyph unicode="Z" glyph-name="Z" horiz-adv-x="504" d="M512 676Q512 631 432 517Q358 417 284 317Q204 206 204 168Q204 141 231 126Q252 114 284 114Q321 114 354 131Q374 141 400 161Q420 178 426 178Q436 178 438 168Q492 23 492 16Q492 2 444 2H46Q10 2
10 46Q10 128 81 250Q112 304 213 445Q284 544 284 572Q284 606 224 606Q192 606 152 582T104 558Q92 558 92 574Q54 686 54 694Q54 706 98 706H478Q512 706 512 676Z" />
<glyph unicode="[" glyph-name="bracketleft" horiz-adv-x="308" d="M298 706Q298 699 288 693T266 686Q203 686 176 568Q158 490 158 374Q158 231 183 140Q211 34 266 34Q292 28 292 16Q292 2 260 2H120Q98 2 91 8T74 48Q54 120 54 272Q54 386 64 521Q72 638
80 674Q86 701 89 707Q97 720 120 720H260Q298 720 298 706Z" />
<glyph unicode="\" glyph-name="backslash" horiz-adv-x="428" d="M378 10Q378 2 344 2Q294 2 286 18L26 696Q26 709 68 708Q114 707 122 696L378 10Z" />
<glyph unicode="]" glyph-name="bracketright" horiz-adv-x="296" d="M242 270Q242 118 222 46Q213 13 206 7T176 0H36Q4 0 4 14Q4 26 30 32Q85 32 113 138Q138 229 138 372Q138 488 120 566Q93 684 30 684Q18 684 8 690T-2 704Q-2 718 36 718H176Q199 718 207
705Q210 699 216 672Q224 636 232 519Q242 384 242 270Z" />
<glyph unicode="^" glyph-name="asciicircum" horiz-adv-x="318" d="M266 446Q266 434 264 432T248 430H224Q214 430 212 432T210 446V464Q210 516 199 563Q186 616 168 616Q156 616 142 569T128 478Q128 472 129 460T130 442Q130 441 131 439T132 436Q132 430
102 430H82Q69 430 67 431T64 442Q64 548 104 634Q137 706 160 706Q186 706 221 644Q266 563 266 446Z" />
<glyph unicode="_" glyph-name="underscore" horiz-adv-x="472" d="M470 -80Q470 -94 456 -144Q451 -162 437 -167Q428 -170 394 -170H30Q0 -170 0 -150Q0 -159 18 -92Q23 -73 31 -69T56 -64H428Q454 -64 461 -66T470 -80Z" />
<glyph unicode="`" glyph-name="grave" horiz-adv-x="274" d="M238 576Q232 568 228 568L142 496Q132 488 114 488Q84 488 58 515T28 580Q28 622 61 660Q105 711 188 716Q196 716 196 712Q174 674 174 652Q174 633 198 606T238 578V576Z" />
<glyph unicode="a" glyph-name="a" horiz-adv-x="416" d="M382 28Q383 10 359 5Q341 2 270 2Q147 2 87 34Q20 70 18 154Q16 233 71 285Q123 335 216 354Q246 360 251 365T256 400Q256 423 230 437T172 452Q111 452 102 414Q98 378 78 378Q59 378 43 404T26 456Q26
497 74 525T186 554Q258 554 308 517Q365 474 368 394L382 28ZM262 148V242Q262 268 230 268Q198 268 165 243Q128 214 128 178Q128 147 157 124Q183 102 214 102Q262 102 262 148Z" />
<glyph unicode="b" glyph-name="b" horiz-adv-x="450" d="M422 292Q422 172 351 85Q284 2 204 2H90Q57 2 47 5Q34 10 30 28Q18 136 18 222V428Q18 475 26 566Q35 669 44 700Q50 720 84 720H130Q170 720 170 704Q170 693 156 639T142 566Q142 530 166 530Q172 530
203 541T252 552Q317 552 364 495Q422 424 422 292ZM304 312Q304 373 282 418Q253 476 196 476Q168 476 152 451T136 386Q136 256 147 208Q162 144 206 144Q260 144 286 205Q304 249 304 312Z" />
<glyph unicode="c" glyph-name="c" horiz-adv-x="406" d="M384 160Q384 84 332 35Q283 -10 216 -10Q136 -10 81 52Q18 122 18 248Q18 391 100 479Q171 556 260 556Q311 556 347 529T384 460Q384 443 367 418T336 392Q322 392 310 420Q295 456 254 456Q212 456
173 407Q130 351 130 276Q130 205 166 161Q199 120 248 120Q302 120 344 174Q366 202 372 202Q384 202 384 160Z" />
<glyph unicode="d" glyph-name="d" horiz-adv-x="450" d="M422 464Q422 76 414 36Q409 10 405 6T376 2H216Q22 2 22 260Q22 395 95 479Q155 548 222 548Q232 548 251 537T274 526Q296 530 296 566Q296 591 284 638T272 700Q272 714 316 714H366Q422 714 422 464ZM310
274V374Q310 470 254 470Q193 470 163 395Q140 339 140 266Q140 213 161 172Q186 122 232 122Q310 122 310 274Z" />
<glyph unicode="e" glyph-name="e" horiz-adv-x="438" d="M418 150Q418 84 369 38Q317 -12 232 -12Q128 -12 68 71Q14 144 14 252Q14 361 75 452Q144 554 250 554Q314 554 362 514Q416 468 416 394Q416 281 204 228Q179 222 161 206T142 170Q142 137 187 117Q222
102 262 102Q368 102 390 194Q394 210 398 210Q403 210 410 191T418 150ZM310 394Q310 416 288 435T238 454Q193 454 159 410Q130 372 130 336Q130 318 154 318Q188 318 278 354Q310 367 310 394Z" />
<glyph unicode="f" glyph-name="f" horiz-adv-x="318" d="M300 468Q300 450 288 450Q287 450 273 452T244 454Q208 454 200 414Q196 395 196 368Q196 313 214 172T232 18Q232 0 210 0Q209 0 206 1T200 2H134Q104 2 99 6T88 36Q88 60 85 117T82 194V434Q82 458
64 458Q57 458 38 453T18 448Q8 448 8 474L16 514Q16 537 74 546Q87 546 93 559Q97 576 102 592Q125 720 254 720Q300 720 300 694V692L294 626Q294 600 278 600Q277 600 268 604T252 608Q239 608 228 593T216 560Q216 536 232 536Q235 536 247 538T268 540Q286
540 293 535T300 508V468Z" />
<glyph unicode="g" glyph-name="g" horiz-adv-x="472" d="M452 544Q452 537 404 534Q370 526 370 508Q370 500 394 456T418 374Q412 186 212 186Q182 186 157 170T132 134Q132 108 166 108Q181 108 235 128T324 148Q434 148 434 98Q434 94 433 86T432 74L404 8Q394
-16 376 -16Q360 -16 350 2Q336 26 304 26Q284 26 221 7T134 -12Q70 -12 44 16T18 102Q18 139 42 167Q56 183 88 204Q112 221 112 228Q112 231 96 251Q76 275 66 297Q50 332 50 372Q50 443 101 495T224 548Q262 548 286 544Q311 544 339 581T388 618Q401 618 410
606L444 560Q452 552 452 544ZM318 386Q318 426 295 448T238 470Q204 470 179 448Q151 424 150 386Q149 345 173 320T232 294Q265 294 291 319T318 386Z" />
<glyph unicode="h" glyph-name="h" horiz-adv-x="438" d="M406 306Q406 119 384 28Q379 9 372 6T338 2H286Q246 2 246 20Q246 44 267 162T288 334Q288 470 224 470Q175 470 152 393Q136 338 136 262Q136 222 148 134T160 18Q160 0 132 0Q131 0 127 1T120 2H60Q41
2 37 7T26 42Q20 154 20 442Q20 465 28 550Q38 643 46 694Q51 727 58 733T86 740H152Q180 740 180 722Q180 704 163 647T146 566Q146 530 160 530Q169 530 200 545T254 560Q406 560 406 322V306Z" />
<glyph unicode="i" glyph-name="i" horiz-adv-x="208" d="M168 686Q168 653 148 635T102 616Q75 616 56 634T36 686Q36 710 56 725T102 740Q129 740 148 725T168 686ZM176 36Q176 12 170 7T142 2H70Q53 2 46 6Q36 13 36 37T31 167Q28 257 28 312Q28 398 36 514Q46
546 76 546H116Q150 546 150 520Q150 506 145 459T140 388Q140 232 176 36Z" />
<glyph unicode="j" glyph-name="j" horiz-adv-x="274" d="M226 686Q226 653 206 635T160 616Q134 616 114 634T94 686Q94 710 114 725T160 740Q187 740 206 725T226 686ZM242 290Q242 -12 114 -12Q18 -12 18 36Q18 37 36 114Q39 134 54 134Q56 134 68 123T90 112Q101
112 110 132T120 194Q120 367 102 526Q102 546 134 546H194Q226 546 226 514Q242 370 242 290Z" />
<glyph unicode="k" glyph-name="k" horiz-adv-x="450" d="M422 28Q422 8 412 4Q408 2 382 2H328Q301 2 293 6Q282 12 282 36Q282 96 253 167Q225 234 204 234Q156 234 156 152Q156 142 164 92T172 14Q172 2 142 2H76Q56 2 52 6T44 36Q30 116 30 308Q30 604 50
706Q54 727 59 730T90 734H142Q178 734 178 710V702Q178 663 159 544T140 372Q140 370 139 364T138 356Q138 320 150 320Q172 320 212 380Q254 444 256 494Q257 530 267 539Q273 546 296 546H342Q368 546 372 542T376 508Q376 469 329 392T282 314Q282 308 318
276Q362 237 386 191Q422 122 422 28Z" />
<glyph unicode="l" glyph-name="l" horiz-adv-x="198" d="M168 8Q168 0 138 0H72Q50 0 42 5T34 34Q18 114 18 314Q18 560 40 688Q44 712 51 718Q55 722 72 722H126Q158 722 166 708Q165 689 152 546Q140 413 140 334Q140 256 154 139T168 8Z" />
<glyph unicode="m" glyph-name="m" horiz-adv-x="700" d="M666 240Q666 208 663 150Q659 74 658 48Q657 17 650 10T624 2H564Q518 2 518 18Q518 33 532 122T546 256Q546 325 531 375Q509 448 460 448Q438 448 422 424T404 354Q403 331 405 272Q408 204 408 174Q408
99 396 36Q391 10 386 6T356 2H298Q266 2 266 10Q266 10 272 28Q294 142 294 268Q294 450 232 450Q144 450 144 246Q144 123 164 28Q166 22 166 10Q166 2 130 2H84Q56 2 50 5T38 28Q20 148 20 296Q20 456 38 540Q44 568 50 574T78 580H138Q162 580 162 556Q162
553 159 546T156 534Q156 533 157 530T158 526Q163 508 172 508Q172 508 216 527T284 546Q318 546 349 527T390 508Q390 508 435 527T524 546Q666 546 666 240Z" />
<glyph unicode="n" glyph-name="n" horiz-adv-x="450" d="M418 326Q418 157 396 36Q391 10 386 6T356 2H298Q296 2 291 1T284 0Q262 0 262 18Q262 54 281 162T300 300V326Q300 452 242 452Q193 452 166 398Q142 349 142 274Q142 231 154 139T166 22Q166 8 161
5T138 2H72Q56 2 50 7T38 36Q26 288 26 300Q26 457 58 560Q62 574 70 577Q75 580 92 580H164Q182 580 182 564Q182 562 179 549T176 528Q176 518 184 518Q191 518 235 532T304 546Q359 546 390 484Q418 426 418 334V326Z" />
<glyph unicode="o" glyph-name="o" horiz-adv-x="482" d="M456 282Q456 146 389 64Q327 -10 240 -10Q154 -10 93 63Q25 145 24 282Q23 408 90 485Q150 554 236 554Q320 554 384 485Q456 407 456 282ZM348 308Q348 382 313 426Q282 466 238 466Q195 466 165 427Q130
383 130 308Q130 222 163 175Q192 134 236 134Q283 134 315 178Q348 226 348 308Z" />
<glyph unicode="p" glyph-name="p" horiz-adv-x="438" d="M420 394Q418 289 344 198Q278 118 228 118Q211 118 186 152T146 186Q140 186 140 158Q140 138 148 98Q157 50 158 36Q158 14 155 8T132 2H66Q46 2 42 7T34 42Q24 124 24 348Q24 444 26 480Q29 531 51
548Q68 560 112 560Q231 560 308 532Q422 490 420 394ZM312 360Q312 408 280 438Q251 464 214 464Q166 464 149 396Q140 359 140 282Q140 228 184 228Q224 228 268 270T312 360Z" />
<glyph unicode="q" glyph-name="q" horiz-adv-x="438" d="M412 270Q412 191 404 42Q402 13 396 8T364 2H304Q285 2 282 5T278 28Q292 154 292 170Q292 177 290 186Q283 186 267 165Q245 135 238 128Q229 116 208 116Q154 116 88 205Q18 298 18 384Q18 560 310
560Q377 560 398 534Q410 519 410 474Q410 448 411 379T412 270ZM298 288Q298 363 288 398Q270 462 218 462Q170 462 145 435T120 368Q120 317 165 271T252 224Q298 224 298 288Z" />
<glyph unicode="r" glyph-name="r" horiz-adv-x="350" d="M338 474Q338 440 314 408T272 376Q260 376 260 400Q260 415 241 428T202 442Q130 442 130 248Q130 148 158 36Q162 20 162 16Q162 2 132 2H60Q41 2 37 6T26 36Q18 100 18 262Q18 309 19 396T20 514Q20
536 30 542Q36 546 54 546H112Q135 546 137 523T146 500Q154 500 198 530T270 560Q298 560 318 531T338 474Z" />
<glyph unicode="s" glyph-name="s" horiz-adv-x="406" d="M384 164Q384 82 321 33Q264 -12 186 -12Q112 -12 65 32T18 142Q18 205 42 236Q61 187 108 146T190 104Q213 104 236 122T260 166Q260 193 230 214Q213 227 156 254Q94 283 71 309Q36 348 36 414Q36 486
90 527Q138 564 208 564Q263 564 318 535Q370 507 370 482Q370 480 362 460L328 414Q313 394 306 394Q298 394 276 428Q252 466 206 466Q180 466 160 451T140 416Q140 392 176 374Q289 317 327 285Q384 235 384 164Z" />
<glyph unicode="t" glyph-name="t" horiz-adv-x="330" d="M306 496Q306 478 300 461T286 444Q280 444 265 449T242 454Q202 454 202 312Q202 246 213 177T240 82Q252 54 252 54Q252 45 234 36L146 -6Q140 -8 126 -8Q113 -8 106 28Q90 113 90 214Q90 243 91 296T92
374Q92 454 70 454Q66 454 50 448T30 442Q20 442 20 494Q20 540 66 540Q97 540 104 544T112 574Q112 616 147 634Q179 647 212 660Q229 668 234 668Q246 668 246 650Q246 635 235 595T224 546Q224 536 236 536Q240 536 254 538T274 540Q306 540 306 496Z" />
<glyph unicode="u" glyph-name="u" horiz-adv-x="438" d="M410 274Q410 140 398 54Q390 -6 352 -6H306Q281 -6 275 18T262 42Q257 42 219 15T146 -12Q78 -12 44 71Q16 141 16 258Q16 379 46 520Q52 538 58 542T86 546H132Q168 546 168 536Q168 497 149 395T130
264Q130 182 154 138Q174 100 206 100Q290 100 290 310Q290 343 279 424T268 526Q268 546 292 546H346Q373 546 377 543T392 514Q410 468 410 274Z" />
<glyph unicode="v" glyph-name="v" horiz-adv-x="450" d="M422 508Q422 345 376 213Q341 110 284 43Q237 -12 210 -12Q184 -12 140 53Q90 128 58 235Q18 368 18 514Q18 534 22 537T52 540H92Q152 540 152 526Q144 446 144 442Q144 354 172 261T224 168Q261 168
287 291Q310 398 310 508Q310 509 309 513T308 518Q308 534 315 537Q319 540 338 540H384Q413 540 417 536T422 508Z" />
<glyph unicode="w" glyph-name="w" horiz-adv-x="624" d="M598 430Q598 318 558 206Q526 116 478 48Q435 -12 414 -12Q391 -12 351 68T308 148Q302 148 258 68T186 -12Q167 -12 128 55Q86 128 57 221Q22 333 22 432Q22 447 25 475T28 514Q29 532 35 536T62 540H114Q144
540 149 535T154 500Q154 493 153 477T152 452Q152 349 169 260Q185 168 206 168Q224 168 246 234Q272 312 272 412Q272 425 269 465T266 524Q266 540 294 540H348Q372 540 376 537T380 514Q380 501 378 475T376 438Q376 322 398 239Q417 168 434 168Q451 168 472
245Q494 328 494 416Q494 432 488 475T482 528Q482 540 514 540H560Q584 540 588 537T592 514Q598 472 598 430Z" />
<glyph unicode="x" glyph-name="x" horiz-adv-x="438" d="M412 42Q412 12 410 7T392 2H326Q296 2 291 6T286 36Q286 102 250 158Q220 206 198 206Q181 206 162 152Q140 92 140 28Q140 9 136 6T106 2H60Q30 2 25 6T20 36Q22 106 50 165Q68 206 100 242Q126 273
126 274Q126 276 102 307Q74 343 58 382Q34 440 34 508Q34 540 60 540H112Q142 540 145 539Q158 535 158 514Q158 447 185 397Q207 354 226 354Q241 354 260 408T280 508Q280 530 289 536Q294 540 312 540H358Q378 540 385 534T392 508Q392 443 368 392Q354 362
324 326Q300 298 300 288Q300 281 329 253Q364 218 383 180Q412 121 412 42Z" />
<glyph unicode="y" glyph-name="y" horiz-adv-x="438" d="M418 514Q418 352 353 222Q297 112 205 46Q122 -14 46 -14Q20 -14 20 22V102Q20 122 28 128T60 134Q166 134 166 174Q166 186 128 225Q82 273 58 323Q20 403 20 514Q20 534 24 537T54 540H120Q154 540
154 526Q154 519 151 498T148 470Q148 398 192 329Q230 268 252 268Q268 268 286 322T304 442Q304 451 301 483T298 526Q298 535 304 537T332 540H378Q401 540 409 536T418 514Z" />
<glyph unicode="z" glyph-name="z" horiz-adv-x="406" d="M378 474Q378 429 325 355Q275 292 225 229Q172 156 172 114Q172 98 214 98Q244 98 292 108Q303 110 316 117T334 124Q338 124 352 102Q374 54 374 18Q374 7 361 4Q352 2 312 2H60Q32 2 25 9T20 54Q24
126 78 218Q111 276 175 355Q226 420 226 426V428Q223 440 186 440Q172 440 132 429T84 418Q68 418 60 454L46 514Q46 535 63 539Q66 540 100 540H346Q369 540 373 531T378 474Z" />
<glyph unicode="{" glyph-name="braceleft" horiz-adv-x="372" d="M366 20Q366 2 340 2H200Q160 2 143 36Q129 63 126 126T120 254Q118 292 103 315Q93 330 78 340T62 354Q62 357 73 363Q88 370 98 384Q113 407 120 448Q126 531 132 613Q145 714 206 714H328Q366
714 366 694Q366 676 328 674Q226 668 226 572Q226 551 233 510T240 454Q240 425 224 401Q215 387 198 372T180 354Q180 354 210 324T240 264V262Q240 238 233 202T226 154Q226 82 260 56Q282 39 334 36Q366 34 366 20Z" />
<glyph unicode="|" glyph-name="bar" horiz-adv-x="264" d="M194 700L174 16Q174 4 134 4Q88 4 84 20L98 698Q98 713 144 712Q190 711 194 700Z" />
<glyph unicode="}" glyph-name="braceright" horiz-adv-x="384" d="M306 356Q306 352 292 343Q275 332 265 317Q250 294 248 256Q245 192 242 129T225 38Q208 4 168 4H28Q2 4 2 22Q2 36 34 38Q86 41 108 58Q142 84 142 156Q142 168 135 204T128 264L126 266Q126
296 157 326T188 356Q188 359 172 373Q153 389 144 403Q128 427 128 456Q128 471 135 512T142 574Q142 670 40 676Q2 678 2 696Q2 716 40 716H162Q223 716 236 615Q242 533 248 450Q255 409 270 386Q280 372 295 365Q306 359 306 356Z" />
<glyph unicode="~" glyph-name="asciitilde" horiz-adv-x="416" d="M380 706Q380 660 342 635Q309 614 264 614Q219 614 180 632Q124 658 94 658Q78 658 71 642T52 626Q38 626 38 644Q38 684 76 712Q109 736 146 736Q178 736 206 726Q288 696 310 696Q339 696
354 720Q360 730 366 730Q380 730 380 706Z" />
</font>
</defs>
</svg>
